<svg width="26" height="26" xmlns="http://www.w3.org/2000/svg"><g fill="#FFF"><path d="M18.825 0H7.175C3.219 0 0 3.219 0 7.175v11.65C0 22.78 3.219 26 7.175 26h11.65C22.78 26 26 22.781 26 18.825V7.175C26 3.22 22.781 0 18.825 0zm4.868 18.825a4.874 4.874 0 0 1-4.868 4.868H7.175a4.874 4.874 0 0 1-4.868-4.868V7.175a4.874 4.874 0 0 1 4.868-4.868h11.65a4.874 4.874 0 0 1 4.868 4.868v11.65z"/><path d="M13 7c-3.308 0-6 2.692-6 6 0 3.309 2.692 6 6 6s6-2.691 6-6c0-3.308-2.692-6-6-6zm0 9.934A3.938 3.938 0 0 1 9.066 13 3.938 3.938 0 0 1 13 9.066 3.938 3.938 0 0 1 16.934 13 3.938 3.938 0 0 1 13 16.934zM19.5 5A1.507 1.507 0 0 0 18 6.5c0 .394.16.781.44 1.06.279.28.666.44 1.06.44A1.506 1.506 0 0 0 21 6.5c0-.395-.16-.783-.44-1.06A1.506 1.506 0 0 0 19.5 5z"/></g></svg>